<?xml version="1.0" encoding="UTF-8" standalone="no"?>
<svg
   width="1024"
   height="1024"
   viewBox="0 0 1024 1024"
   version="1.1"
   id="svg3"
   sodipodi:docname="starstucklab_logo_black_white.svg"
   inkscape:version="1.4.1-rc (d9e8dc1fe0, 2025-03-10)"
   xmlns:inkscape="http://www.inkscape.org/namespaces/inkscape"
   xmlns:sodipodi="http://sodipodi.sourceforge.net/DTD/sodipodi-0.dtd"
   xmlns="http://www.w3.org/2000/svg"
   xmlns:svg="http://www.w3.org/2000/svg">
  <defs
     id="defs3" />
  <sodipodi:namedview
     id="namedview3"
     pagecolor="#4EC57A"
     bordercolor="#7D5FFF"
     borderopacity="0.25"
     inkscape:showpageshadow="2"
     inkscape:pageopacity="0.0"
     inkscape:pagecheckerboard="0"
     inkscape:deskcolor="#d1d1d1"
     inkscape:zoom="0.3959961"
     inkscape:cx="29.04069"
     inkscape:cy="342.17509"
     inkscape:window-width="1920"
     inkscape:window-height="1016"
     inkscape:window-x="0"
     inkscape:window-y="0"
     inkscape:window-maximized="1"
     inkscape:current-layer="svg3" />
  <rect
     width="100%"
     height="100%"
     fill="#4EC57A"
     id="rect1" />
  <path
     fill="#4EC57A"
     d="M0 0L1024 0L1024 1024L0 1024L0 0Z"
     id="path1" />
  <path
     d="M507.568 104.147C530.003 102.508 536.494 114.979 544.499 132.84C548.221 141.145 552.444 149.705 556.214 158.05L611.408 282.629L625.321 313.573C628.126 319.778 630.863 325.835 633.939 331.919C650.864 365.394 686.088 360.647 718.356 363.059L834.568 371.92L874.611 374.424C892.774 375.529 914.254 373.974 922.244 394.207C930.057 413.994 917.595 426.311 903.386 437.781C896.609 443.252 889.583 449.426 882.908 455.089L806.756 520.404L772.419 550.058C763.493 557.79 754.582 565.841 745.789 573.637C722.282 594.476 726.692 615.526 732.585 643.578C735.314 656.404 738.118 669.215 740.998 682.009L770.138 809.769C775.126 831.254 789.856 866.969 767.623 881.409C745.899 895.52 722.462 873.779 704.27 863.015L587.824 793.186C576.004 786.204 564.119 779.333 552.171 772.572C541.996 766.764 528.935 758.203 517.451 756.233L516.736 756.116C500.546 754.836 482.104 767.084 468.254 774.976C413.794 806.011 359.889 838.446 306.472 871.254C298.032 876.438 289.626 882.687 279.905 885.122C263.444 890.611 243.925 874.129 244.267 857.433C244.559 843.158 251.086 820.419 254.436 806.008C264.016 765.222 273.202 724.344 281.992 683.38L290.48 645.38C293.465 632.055 297.712 617.086 295.505 603.478C294.198 595.797 291.02 588.557 286.252 582.395C280.362 574.828 270.666 566.698 263.286 560.277L238.688 538.89L142.677 455.718L121.157 437.171C116.368 433.034 111.413 429.115 107.242 424.237C93.135 407.74 101 381.182 122.365 376.114C130.863 374.098 139.067 373.917 147.786 373.341L180.053 371.282C219.366 368.911 257.457 365.573 296.594 362.765C307.155 362.028 317.725 361.418 328.3 360.933C335.906 360.556 345.135 360.31 352.491 358.941C365.442 356.423 377.04 349.295 385.134 338.877C391.683 330.576 401.067 306.861 406.111 295.771C423.283 258.601 440.101 221.267 456.56 183.776C462.897 168.992 469.332 154.25 475.865 139.552C483.09 123.541 488.12 107.583 507.568 104.147Z"
     id="path2"
     style="fill:#7D5FFF;fill-opacity:1" />
  <path
     fill="#4EC57A"
     d="m 621.5164,445.64156 c 7.286,-0.709 36.382,-1.521 38.67,9.442 0.687,3.289 -2.133,12.968 -3.121,16.729 -13.254,50.495 -45.355,103.377 -102.334,109.046 -4.733,0.471 -18.357,1.532 -22.15,-1.558 -0.766,-1.53 -0.856,-2.481 -0.585,-4.172 4.349,-27.153 34.42,-53.338 55.013,-69.16 -42.16,17.615 -68.678,47.921 -72.473,94.465 -1.472,18.055 0.478,26.499 2.974,43.912 1.393,9.774 2.463,19.591 3.209,29.435 1.391,19.671 2.342,58.658 2.342,58.658 l -0.0407,25.72766 c 0,0 -3.30745,-1.45877 -11.41422,-1.54213 -36.17552,4.79062 -12.18939,25.19352 -10.16906,-49.13653 1.801,-31.282 -4.344,-82.535 -16.19,-111.77 -13.285,-32.785 -39.798,-53 -71.739,-66.049 20.377,16.038 41.862,32.994 56.154,55.067 3.556,5.492 6.466,11.896 9.308,17.825 -71.119,8.07 -114.642,-40.887 -137.192,-102.372 -9.7,-26.447 -9.865,-30.502 21.389,-29.359 47.866,1.75 105.717,26.326 121.995,74.789 2.485,7.298 9.553,41.93 12.885,45.487 3.362,-0.875 5.784,-16.782 6.756,-20.751 2.445,-9.718 4.957,-19.419 7.536,-29.102 5.631,-21.302 9.228,-36.473 24.363,-53.727 21.591,-24.616 52.38,-39.433 84.814,-41.884 z"
     id="path3"
     style="fill:#4EC57A;fill-opacity:1"
     sodipodi:nodetypes="cccscccsccccccccscccccccccc" />
</svg>
